Coordinates
version=1
nRows=16
nColumns=40
inDegrees=yes

Units are S.I. units (second, meters, Newtons, ...)
Angles are in degrees.

endheader
time	pelvis_tilt	pelvis_list	pelvis_rotation	pelvis_tx	pelvis_ty	pelvis_tz	hip_flexion_r	hip_adduction_r	hip_rotation_r	knee_angle_r	knee_angle_r_beta	ankle_angle_r	subtalar_angle_r	mtp_angle_r	hip_flexion_l	hip_adduction_l	hip_rotation_l	knee_angle_l	knee_angle_l_beta	ankle_angle_l	subtalar_angle_l	mtp_angle_l	lumbar_extension	lumbar_bending	lumbar_rotation	arm_flex_r	arm_add_r	arm_rot_r	elbow_flex_r	pro_sup_r	wrist_flex_r	wrist_dev_r	arm_flex_l	arm_add_l	arm_rot_l	elbow_flex_l	pro_sup_l	wrist_flex_l	wrist_dev_l
      3.63000000	     -5.07505772	     -0.21500307	     -1.32430451	      0.66068081	      0.88169754	     -0.98985423	     -1.86424757	     -1.04538313	    -10.40635969	    -29.25575547	     -0.51060926	      8.21167187	     -2.09371898	     -2.48013833	     31.84489288	      3.55846359	     12.37662229	    -29.84701717	     -0.52092872	      1.53744365	     11.93057696	      6.94029387	     -0.79090573	     -1.75637335	      0.35132655	      1.25933713	     -8.87968126	     -9.08117750	     32.17430397	     89.95437384	      0.00000000	      0.00000000	     -3.61794299	      6.98859628	     25.15893789	     23.25243495	     89.95437384	      0.00000000	      0.00000000
      3.64000000	     -5.19683559	      0.02095830	     -1.27477647	      0.66807879	      0.88232821	     -0.99205630	     -1.45083720	     -1.48722672	    -10.19389318	    -30.49720069	     -0.53227656	      6.95551305	     -3.27689326	     -1.92930607	     31.53277002	      3.01766505	     12.08288838	    -29.96306474	     -0.52295413	      1.76064198	     12.47447973	      6.71674719	     -0.49818405	     -2.02781063	      0.27013082	      0.93691938	     -8.80973868	     -9.13848517	     31.97435985	     89.95437384	      0.00000000	      0.00000000	     -3.58455274	      7.11209378	     24.60018479	     23.55402643	     89.95437384	      0.00000000	      0.00000000
      3.65000000	     -5.15663493	     -0.11470910	     -1.15751628	      0.67553149	      0.88315998	     -0.99410366	     -1.19321672	     -1.51104376	    -10.09665856	    -31.76527367	     -0.55440861	      6.00229490	     -3.38418825	     -1.74105204	     31.10150900	      2.96922830	     11.96448792	    -30.18095045	     -0.52675696	      1.98835134	     12.18474881	      6.51319260	     -0.41852025	     -1.90692245	      0.07148607	      0.64528713	     -8.79074556	     -9.09638991	     31.83663402	     89.95437384	      0.00000000	      0.00000000	     -3.52985021	      7.12072144	     24.33687448	     23.93413418	     89.95437384	      0.00000000	      0.00000000
      3.66000000	     -5.38251999	      0.11433028	     -1.23321704	      0.68264453	      0.88368665	     -0.99621112	     -0.25634766	     -2.00779561	     -9.99676934	    -33.52868584	     -0.58518596	      4.11956758	     -4.99298447	     -0.77975912	     30.85134913	      2.45727375	     11.70034197	    -30.22598629	     -0.52754298	      2.44595419	     12.95947498	      6.34247990	     -0.02555761	     -2.15469587	      0.17463273	      0.38234604	     -8.76681490	     -9.10093083	     31.43537513	     89.95437384	      0.00000000	      0.00000000	     -3.43671210	      7.21892555	     23.72439301	     24.27756160	     89.95437384	      0.00000000	      0.00000000
      3.67000000	     -5.28587232	     -0.03647906	     -1.19136488	      0.68979720	      0.88456430	     -0.99816799	      0.26911805	     -2.12323686	    -10.12338788	    -35.19998051	     -0.61435556	      2.69454686	     -5.12656238	     -0.47827661	     30.29722239	      2.47067514	     11.66383618	    -30.39494655	     -0.53049189	      2.85863544	     12.54361122	      6.11406209	     -0.05307622	     -2.00321092	      0.05588755	      0.16185386	     -8.78198283	     -9.00691633	     31.21636549	     89.95437384	      0.00000000	      0.00000000	     -3.33956414	      7.23862546	     23.35058387	     24.72141137	     89.95437384	      0.00000000	      0.00000000
      3.68000000	     -5.44618552	      0.18439823	     -1.19908333	      0.69673797	      0.88507004	     -1.00023702	      1.30042455	     -2.60451459	    -10.02655475	    -37.13385389	     -0.64810801	      0.65583655	     -6.45117489	      0.54117177	     29.92852200	      2.05295799	     11.76911519	    -30.32951944	     -0.52934997	      3.34018363	     12.73152276	      5.99356248	      0.24279876	     -2.25491310	     -0.00400752	     -0.08060530	     -8.72571228	     -8.98034206	     30.98197835	     89.95437384	      0.00000000	      0.00000000	     -3.29899220	      7.40188402	     22.51759036	     25.18492177	     89.95437384	      0.00000000	      0.00000000
      3.69000000	     -5.21912734	     -0.03102732	     -1.08440865	      0.70366911	      0.88606321	     -1.00220845	      1.82559990	     -2.59582420	    -10.03052731	    -38.93433620	     -0.67953236	     -0.58730524	     -6.43523724	      0.74372525	     29.22600622	      2.14710029	     11.80348924	    -30.45823208	     -0.53159643	      3.67364694	     12.30764194	      5.80861110	      0.01732844	     -2.03190263	     -0.29761381	     -0.22382437	     -8.70909027	     -8.88979110	     30.86546217	     89.95437384	      0.00000000	      0.00000000	     -3.14663110	      7.45099127	     22.23680075	     25.62043009	     89.95437384	      0.00000000	      0.00000000
      3.70000000	     -5.30294205	      0.25559035	     -1.24694499	      0.71037310	      0.88659691	     -1.00401325	      2.97707520	     -3.16515467	     -9.84327762	    -41.02744304	     -0.71606396	     -2.84138019	     -8.18154126	      2.17215876	     28.69988490	      1.75222363	     12.09498717	    -30.30111465	     -0.52885422	      4.20077703	     12.38221401	      5.75397717	      0.18800283	     -2.35851700	     -0.19651005	     -0.37904940	     -8.66428358	     -8.81693679	     30.51001865	     89.95437384	      0.00000000	      0.00000000	     -3.06069650	      7.63794430	     21.47493036	     26.15855497	     89.95437384	      0.00000000	      0.00000000
      3.71000000	     -5.15397603	      0.27683025	     -1.22602308	      0.71703940	      0.88738156	     -1.00587152	      3.79566778	     -3.41215315	     -9.67126671	    -42.97196367	     -0.75000225	     -4.21955246	     -8.47749039	      2.72138337	     28.02014709	      1.65672403	     12.38598741	    -30.32066739	     -0.52919548	      4.76185008	     11.91142527	      5.57579869	      0.05153445	     -2.40019394	     -0.40355677	     -0.41252886	     -8.60500752	     -8.71208447	     30.19162631	     89.95437384	      0.00000000	      0.00000000	     -2.92634851	      7.74236676	     21.20122352	     26.67796415	     89.95437384	      0.00000000	      0.00000000
      3.72000000	     -4.98294399	      0.33234335	     -1.28306875	      0.72349798	      0.88813541	     -1.00752992	      4.72982058	     -3.63572830	     -9.35164889	    -45.08219221	     -0.78683269	     -5.25499984	     -8.94695765	      3.23884147	     27.29481050	      1.56981084	     12.76196409	    -30.27451617	     -0.52838999	      5.15839248	     11.60769440	      5.44541328	     -0.14217113	     -2.47036282	     -0.52235353	     -0.45928920	     -8.55957748	     -8.61421861	     29.96542636	     89.95437384	      0.00000000	      0.00000000	     -2.72677358	      7.87346662	     20.91816826	     27.18697489	     89.95437384	      0.00000000	      0.00000000
      3.73000000	     -4.69438638	      0.05334047	     -0.98840004	      0.72976170	      0.88896145	     -1.00935072	      5.37135234	     -3.42998745	     -9.30179996	    -46.93693296	     -0.81920402	     -5.60392627	     -8.95584637	      3.26240371	     26.57497184	      1.71955011	     12.77181141	    -30.34302445	     -0.52958568	      5.26258103	     11.22289763	      5.31091173	     -0.54196543	     -2.19528968	     -1.03841250	     -0.53742010	     -8.50117084	     -8.60244706	     29.99677886	     89.95437384	      0.00000000	      0.00000000	     -2.45740714	      7.99354408	     20.74844176	     27.60852578	     89.95437384	      0.00000000	      0.00000000
      3.74000000	     -4.79875532	      0.32140597	     -1.20295034	      0.73564585	      0.88908691	     -1.01071355	      6.89990549	     -3.85091797	     -8.94955907	    -49.38456422	     -0.86192325	     -6.68190826	    -11.11519973	      4.95975770	     26.20639767	      1.43629315	     13.13023115	    -30.35461738	     -0.52978802	      5.72421635	     11.03158857	      5.24313917	     -0.43943631	     -2.51583635	     -0.97069395	     -0.52687341	     -8.42537023	     -8.48433578	     29.61741270	     89.95437384	      0.00000000	      0.00000000	     -2.29692911	      8.21439035	     20.21253809	     28.20473767	     89.95437384	      0.00000000	      0.00000000
      3.75000000	     -4.53929024	      0.40904960	     -1.09749946	      0.74178167	      0.88971852	     -1.01240577	      7.80489243	     -4.14140103	     -8.99771218	    -51.42383242	     -0.89751519	     -6.98539219	    -11.98040817	      5.52731562	     25.45153894	      1.22636035	     13.30687450	    -30.35253565	     -0.52975168	      6.27912475	     10.57248857	      5.07581638	     -0.77778236	     -2.63465389	     -1.32664944	     -0.46659959	     -8.29353565	     -8.54323626	     29.34817895	     89.95437384	      0.00000000	      0.00000000	     -2.05896286	      8.35813763	     20.21792491	     28.73584268	     89.95437384	      0.00000000	      0.00000000
      3.76000000	     -4.28663904	      0.42263814	     -0.99489331	      0.74771451	      0.89030909	     -1.01392699	      8.71199435	     -4.29939198	     -9.05690284	    -53.34842983	     -0.93110575	     -6.81418014	    -12.93671638	      5.95821541	     24.74025736	      1.09060730	     13.37126691	    -30.36730478	     -0.53000945	      6.60698637	     10.28569281	      4.95091785	     -1.12274052	     -2.68622358	     -1.60360574	     -0.43215939	     -8.22003948	     -8.48968831	     29.08590426	     89.95437384	      0.00000000	      0.00000000	     -1.71989561	      8.52311469	     20.12087639	     29.17116746	     89.95437384	      0.00000000	      0.00000000
      3.77000000	     -4.20781431	      0.34261958	     -0.90789901	      0.75352779	      0.89068171	     -1.01511884	      9.86252839	     -4.26019417	     -9.09093393	    -55.30494566	     -0.96525339	     -5.40621300	    -13.13071427	     16.31756141	     24.25231784	      1.05586096	     13.25741768	    -30.41844827	     -0.53090208	      6.97331901	     10.32532623	      4.96717256	     -1.27484491	     -2.63989586	     -1.92461552	     -0.47937731	     -8.09921587	     -8.47096016	     29.03404185	     89.95437384	      0.00000000	      0.00000000	     -1.49224787	      8.71069235	     20.13001745	     29.71282278	     89.95437384	      0.00000000	      0.00000000
      3.78000000	     -3.92133978	      0.21670501	     -0.76189915	      0.75943362	      0.89140144	     -1.01638156	     10.63013489	     -4.21816618	     -9.21451477	    -56.74152567	     -0.99032645	     -4.77111759	    -13.52612141	     16.02836646	     23.53520510	      1.06745238	     13.19578294	    -30.49926397	     -0.53231258	      7.39376041	     10.06050111	      4.81596765	     -1.65338066	     -2.54626180	     -2.29642456	     -0.41644330	     -7.95379124	     -8.54789409	     28.77785882	     89.95437384	      0.00000000	      0.00000000	     -1.14701389	      8.88448621	     20.15577690	     30.09331513	     89.95437384	      0.00000000	      0.00000000
